<?xml version="1.0" encoding="UTF-8" standalone="no"?>
<!DOCTYPE svg PUBLIC "-//W3C//DTD SVG 1.1//EN" "http://www.w3.org/Graphics/SVG/1.1/DTD/svg11.dtd">
<svg width="100%" height="100%" viewBox="0 0 3840 1160" version="1.1" xmlns="http://www.w3.org/2000/svg" xmlns:xlink="http://www.w3.org/1999/xlink" xml:space="preserve" xmlns:serif="http://www.serif.com/" style="fill-rule:evenodd;clip-rule:evenodd;stroke-linejoin:round;stroke-miterlimit:2;">
    <g transform="matrix(1.29092,0,0,1.29092,-514.872,-719.643)">
        <g transform="matrix(10.6209,0,0,10.6209,391.27,794.34)">
            <path d="M5.213,0.5L39.713,0.5L39.713,35C39.713,37.485 37.698,39.5 35.213,39.5L5.213,39.5C2.728,39.5 0.713,37.485 0.713,35L0.713,5C0.713,2.515 2.728,0.5 5.213,0.5ZM12.713,10.385L12.713,29.875C12.713,30.98 13.608,31.875 14.713,31.875L18.481,31.875C19.585,31.875 20.48,30.98 20.48,29.875L20.48,18.361C20.48,17.387 20.736,16.526 21.246,15.78C21.769,15.033 22.474,14.453 23.361,14.038C24.261,13.613 25.415,13.296 26.559,13.296L27.713,13.296L27.713,8.13C27.424,8.13 27.046,8.119 26.559,8.13C26.072,8.14 24.301,8.107 23.097,8.874C21.926,9.611 21.09,10.62 20.576,12.041C20.551,12.11 20.486,12.157 20.413,12.157C20.319,12.157 20.243,12.081 20.242,11.987L20.213,8.385L14.713,8.385C13.608,8.385 12.713,9.28 12.713,10.385ZM23.295,31.875L25.652,31.875C26.757,31.875 27.652,30.98 27.652,29.875L27.652,16.25L25.295,16.25C24.19,16.25 23.295,17.145 23.295,18.25L23.295,31.875Z"/>
        </g>
        <g transform="matrix(10.6209,0,0,10.6209,391.27,794.34)">
            <circle cx="25.213" cy="10.625" r="1.25"/>
        </g>
        <g transform="matrix(10.6209,0,0,10.6209,391.27,794.34)">
            <rect x="270.903" y="13.387" width="9.883" height="3.419" style="fill-rule:nonzero;"/>
        </g>
        <g transform="matrix(10.6209,0,0,10.6209,391.27,794.34)">
            <path d="M277.7,16.807L273.147,16.807L273.147,25.355C273.14,26.43 273.364,27.321 273.82,28.026C274.276,28.731 274.777,29.2 275.596,29.534C276.422,29.869 277.1,29.835 277.702,29.835L277.7,16.807Z" style="fill-rule:nonzero;"/>
        </g>
        <g transform="matrix(10.6209,0,0,10.6209,391.27,794.34)">
            <rect x="273.147" y="7.87" width="4.552" height="5.517" style="fill-rule:nonzero;"/>
        </g>
        <g transform="matrix(10.6209,0,0,10.6209,391.27,794.34)">
            <path d="M257.838,20.311L257.838,29.8L253.286,29.8L253.286,13.387L257.624,13.387L257.624,16.283L257.816,16.283C258.18,15.329 258.789,14.574 259.643,14.018C260.498,13.455 261.535,13.174 262.753,13.174C263.893,13.174 264.886,13.423 265.734,13.922C266.582,14.42 267.241,15.133 267.711,16.059C268.181,16.978 268.416,18.075 268.416,19.35L268.416,29.8L263.864,29.8L263.864,20.162C263.871,19.158 263.615,18.374 263.095,17.811C262.575,17.241 261.859,16.956 260.947,16.956C260.334,16.956 259.793,17.088 259.323,17.352C258.86,17.615 258.497,18 258.233,18.506C257.977,19.004 257.845,19.606 257.838,20.311Z" style="fill-rule:nonzero;"/>
        </g>
        <g transform="matrix(10.6209,0,0,10.6209,391.27,794.34)">
            <path d="M242.782,30.12C241.094,30.12 239.641,29.778 238.423,29.095C237.212,28.404 236.279,27.428 235.623,26.167C234.968,24.899 234.64,23.399 234.64,21.668C234.64,19.98 234.968,18.499 235.623,17.224C236.279,15.948 237.201,14.955 238.391,14.242C239.588,13.53 240.991,13.174 242.601,13.174C243.683,13.174 244.691,13.348 245.625,13.697C246.565,14.039 247.384,14.556 248.082,15.247C248.787,15.938 249.336,16.807 249.728,17.854C250.119,18.894 250.315,20.112 250.315,21.508L250.315,22.758L236.457,22.758L236.457,19.938L246.031,19.938C246.031,19.282 245.888,18.702 245.603,18.196C245.318,17.69 244.923,17.295 244.417,17.01C243.919,16.718 243.338,16.572 242.676,16.572C241.985,16.572 241.372,16.732 240.838,17.052C240.311,17.366 239.897,17.79 239.598,18.324C239.299,18.851 239.146,19.439 239.139,20.087L239.139,22.769C239.139,23.581 239.288,24.283 239.588,24.874C239.894,25.465 240.325,25.921 240.88,26.242C241.436,26.562 242.095,26.723 242.857,26.723C243.363,26.723 243.826,26.651 244.246,26.509C244.667,26.366 245.026,26.153 245.325,25.868C245.625,25.583 245.853,25.234 246.009,24.821L250.219,25.098C250.005,26.11 249.567,26.993 248.905,27.748C248.25,28.496 247.402,29.08 246.362,29.501C245.329,29.914 244.136,30.12 242.782,30.12Z" style="fill-rule:nonzero;"/>
        </g>
        <g transform="matrix(10.6209,0,0,10.6209,391.27,794.34)">
            <path d="M223.656,36.296C222.182,36.296 220.917,36.093 219.863,35.687C218.816,35.288 217.982,34.743 217.363,34.052C216.743,33.361 216.34,32.585 216.155,31.723L220.365,31.157C220.493,31.484 220.696,31.791 220.974,32.076C221.252,32.361 221.619,32.589 222.075,32.76C222.538,32.938 223.101,33.027 223.763,33.027C224.753,33.027 225.569,32.784 226.21,32.3C226.858,31.823 227.182,31.021 227.182,29.896L227.182,26.893L226.99,26.893C226.79,27.349 226.491,27.78 226.092,28.186C225.693,28.592 225.181,28.924 224.554,29.18C223.927,29.436 223.179,29.565 222.31,29.565C221.078,29.565 219.956,29.28 218.944,28.71C217.94,28.133 217.138,27.253 216.54,26.071C215.949,24.881 215.653,23.378 215.653,21.562C215.653,19.702 215.956,18.15 216.561,16.903C217.167,15.656 217.972,14.723 218.976,14.103C219.988,13.484 221.095,13.174 222.299,13.174C223.218,13.174 223.987,13.331 224.607,13.644C225.227,13.95 225.726,14.335 226.103,14.798C226.488,15.254 226.783,15.703 226.99,16.144L227.161,16.144L227.161,13.387L231.681,13.387L231.681,29.96C231.681,31.356 231.339,32.524 230.655,33.465C229.971,34.405 229.024,35.11 227.813,35.58C226.609,36.058 225.223,36.296 223.656,36.296ZM223.752,26.145C224.486,26.145 225.106,25.964 225.612,25.601C226.124,25.23 226.516,24.703 226.787,24.019C227.065,23.328 227.204,22.502 227.204,21.54C227.204,20.579 227.068,19.745 226.798,19.04C226.527,18.328 226.135,17.776 225.622,17.384C225.109,16.992 224.486,16.796 223.752,16.796C223.004,16.796 222.374,16.999 221.861,17.405C221.348,17.804 220.96,18.36 220.696,19.072C220.433,19.784 220.301,20.607 220.301,21.54C220.301,22.488 220.433,23.307 220.696,23.998C220.967,24.682 221.355,25.212 221.861,25.59C222.374,25.96 223.004,26.145 223.752,26.145Z" style="fill-rule:nonzero;"/>
        </g>
        <g transform="matrix(10.6209,0,0,10.6209,391.27,794.34)">
            <path d="M208.064,29.8L208.064,13.388L212.616,13.388L212.616,29.8L208.064,29.8ZM210.351,11.272C209.674,11.272 209.094,11.048 208.609,10.599C208.132,10.143 207.893,9.598 207.893,8.964C207.893,8.337 208.132,7.8 208.609,7.351C209.094,6.895 209.674,6.667 210.351,6.667C211.028,6.667 211.605,6.895 212.082,7.351C212.566,7.8 212.808,8.337 212.808,8.964C212.808,9.598 212.566,10.143 212.082,10.599C211.605,11.048 211.028,11.272 210.351,11.272Z" style="fill-rule:nonzero;"/>
        </g>
        <g transform="matrix(10.6209,0,0,10.6209,391.27,794.34)">
            <rect x="199.866" y="7.917" width="4.552" height="21.883" style="fill-rule:nonzero;"/>
        </g>
        <g transform="matrix(10.6209,0,0,10.6209,391.27,794.34)">
            <rect x="191.668" y="7.917" width="4.552" height="21.883" style="fill-rule:nonzero;"/>
        </g>
        <g transform="matrix(10.6209,0,0,10.6209,391.27,794.34)">
            <path d="M181.165,30.12C179.476,30.12 178.023,29.778 176.805,29.095C175.594,28.404 174.661,27.428 174.006,26.167C173.35,24.899 173.023,23.399 173.023,21.668C173.023,19.98 173.35,18.499 174.006,17.224C174.661,15.948 175.584,14.955 176.773,14.242C177.97,13.53 179.373,13.174 180.983,13.174C182.066,13.174 183.074,13.348 184.007,13.697C184.947,14.039 185.766,14.556 186.464,15.247C187.17,15.938 187.718,16.807 188.11,17.854C188.502,18.894 188.698,20.112 188.698,21.508L188.698,22.758L174.839,22.758L174.839,19.938L184.413,19.938C184.413,19.282 184.27,18.702 183.986,18.196C183.701,17.69 183.305,17.295 182.8,17.01C182.301,16.718 181.72,16.572 181.058,16.572C180.367,16.572 179.754,16.732 179.22,17.052C178.693,17.366 178.28,17.79 177.981,18.324C177.681,18.851 177.528,19.439 177.521,20.087L177.521,22.769C177.521,23.581 177.671,24.283 177.97,24.874C178.276,25.465 178.707,25.921 179.263,26.242C179.818,26.562 180.477,26.723 181.239,26.723C181.745,26.723 182.208,26.651 182.629,26.509C183.049,26.366 183.409,26.153 183.708,25.868C184.007,25.583 184.235,25.234 184.392,24.821L188.601,25.098C188.388,26.11 187.95,26.993 187.287,27.748C186.632,28.496 185.784,29.08 184.744,29.501C183.711,29.914 182.518,30.12 181.165,30.12Z" style="fill-rule:nonzero;"/>
        </g>
        <g transform="matrix(10.6209,0,0,10.6209,391.27,794.34)">
            <rect x="162.011" y="13.387" width="9.884" height="3.419" style="fill-rule:nonzero;"/>
        </g>
        <g transform="matrix(10.6209,0,0,10.6209,391.27,794.34)">
            <path d="M168.808,16.807L164.255,16.807L164.255,25.355C164.248,26.43 164.472,27.321 164.928,28.026C165.384,28.731 165.885,29.2 166.704,29.534C167.53,29.869 168.208,29.835 168.81,29.835L168.808,16.807Z" style="fill-rule:nonzero;"/>
        </g>
        <g transform="matrix(10.6209,0,0,10.6209,391.27,794.34)">
            <rect x="164.255" y="7.87" width="4.552" height="5.517" style="fill-rule:nonzero;"/>
        </g>
        <g transform="matrix(10.6209,0,0,10.6209,391.27,794.34)">
            <path d="M149.235,20.311L149.235,29.8L144.683,29.8L144.683,13.387L149.021,13.387L149.021,16.283L149.214,16.283C149.577,15.329 150.186,14.574 151.041,14.018C151.896,13.455 152.932,13.174 154.15,13.174C155.29,13.174 156.284,13.423 157.131,13.922C157.979,14.42 158.638,15.133 159.108,16.059C159.578,16.978 159.813,18.075 159.813,19.35L159.813,29.8L155.261,29.8L155.261,20.162C155.268,19.158 155.012,18.374 154.492,17.811C153.972,17.241 153.256,16.956 152.344,16.956C151.732,16.956 151.19,17.088 150.72,17.352C150.257,17.615 149.894,18 149.63,18.506C149.374,19.004 149.242,19.606 149.235,20.311Z" style="fill-rule:nonzero;"/>
        </g>
        <g transform="matrix(10.6209,0,0,10.6209,391.27,794.34)">
            <path d="M136.485,29.8L136.485,13.388L141.037,13.388L141.037,29.8L136.485,29.8ZM138.772,11.272C138.095,11.272 137.514,11.048 137.03,10.599C136.553,10.143 136.314,9.598 136.314,8.964C136.314,8.337 136.553,7.8 137.03,7.351C137.514,6.895 138.095,6.667 138.772,6.667C139.448,6.667 140.025,6.895 140.502,7.351C140.987,7.8 141.229,8.337 141.229,8.964C141.229,9.598 140.987,10.143 140.502,10.599C140.025,11.048 139.448,11.272 138.772,11.272Z" style="fill-rule:nonzero;"/>
        </g>
        <g transform="matrix(10.6209,0,0,10.6209,391.27,794.34)">
            <path d="M127.444,30.078C126.739,30.078 126.134,29.829 125.628,29.33C125.129,28.824 124.88,28.219 124.88,27.514C124.88,26.816 125.129,26.217 125.628,25.719C126.134,25.22 126.739,24.971 127.444,24.971C128.128,24.971 128.727,25.22 129.239,25.719C129.752,26.217 130.009,26.816 130.009,27.514C130.009,27.984 129.888,28.415 129.645,28.807C129.41,29.191 129.1,29.501 128.716,29.736C128.331,29.964 127.907,30.078 127.444,30.078Z" style="fill-rule:nonzero;"/>
        </g>
        <g transform="matrix(10.6209,0,0,10.6209,391.27,794.34)">
            <rect x="116.877" y="13.387" width="9.884" height="3.419" style="fill-rule:nonzero;"/>
        </g>
        <g transform="matrix(10.6209,0,0,10.6209,391.27,794.34)">
            <path d="M123.674,16.807L119.121,16.807L119.121,25.355C119.114,26.43 119.339,27.321 119.794,28.026C120.25,28.731 120.751,29.2 121.57,29.534C122.397,29.869 123.075,29.835 123.677,29.835L123.674,16.807Z" style="fill-rule:nonzero;"/>
        </g>
        <g transform="matrix(10.6209,0,0,10.6209,391.27,794.34)">
            <rect x="119.121" y="7.87" width="4.553" height="5.517" style="fill-rule:nonzero;"/>
        </g>
        <g transform="matrix(10.6209,0,0,10.6209,391.27,794.34)">
            <path d="M103.807,20.312L103.807,29.8L99.255,29.8L99.255,7.917L103.678,7.917L103.678,16.283L103.871,16.283C104.241,15.315 104.84,14.556 105.666,14.008C106.492,13.452 107.529,13.174 108.775,13.174C109.915,13.174 110.909,13.423 111.756,13.922C112.611,14.414 113.274,15.122 113.744,16.048C114.221,16.967 114.456,18.068 114.449,19.35L114.449,29.8L109.897,29.8L109.897,20.162C109.904,19.151 109.648,18.363 109.128,17.801C108.615,17.238 107.896,16.956 106.969,16.956C106.35,16.956 105.801,17.088 105.324,17.352C104.854,17.615 104.483,18 104.213,18.506C103.949,19.005 103.814,19.606 103.807,20.312Z" style="fill-rule:nonzero;"/>
        </g>
        <g transform="matrix(10.6209,0,0,10.6209,391.27,794.34)">
            <path d="M89.011,30.12C87.33,30.12 85.884,29.764 84.673,29.052C83.469,28.332 82.543,27.335 81.894,26.06C81.253,24.785 80.933,23.318 80.933,21.658C80.933,19.977 81.257,18.502 81.905,17.234C82.561,15.959 83.49,14.965 84.694,14.253C85.898,13.534 87.33,13.174 88.989,13.174C90.421,13.174 91.675,13.434 92.751,13.954C93.826,14.474 94.677,15.204 95.304,16.144C95.931,17.085 96.277,18.189 96.341,19.457L92.045,19.457C91.924,18.637 91.604,17.979 91.084,17.48C90.571,16.974 89.898,16.721 89.064,16.721C88.359,16.721 87.743,16.914 87.216,17.298C86.696,17.676 86.29,18.228 85.998,18.954C85.706,19.681 85.56,20.561 85.56,21.594C85.56,22.641 85.702,23.531 85.987,24.265C86.279,24.999 86.689,25.558 87.216,25.943C87.743,26.327 88.359,26.519 89.064,26.519C89.584,26.519 90.051,26.413 90.464,26.199C90.884,25.985 91.23,25.675 91.5,25.269C91.778,24.856 91.96,24.361 92.045,23.784L96.341,23.784C96.269,25.038 95.928,26.142 95.315,27.096C94.709,28.044 93.872,28.785 92.804,29.319C91.735,29.853 90.471,30.12 89.011,30.12Z" style="fill-rule:nonzero;"/>
        </g>
        <g transform="matrix(10.6209,0,0,10.6209,391.27,794.34)">
            <path d="M71.092,30.12C69.404,30.12 67.951,29.778 66.733,29.095C65.522,28.404 64.588,27.428 63.933,26.167C63.278,24.899 62.95,23.399 62.95,21.668C62.95,19.98 63.278,18.499 63.933,17.224C64.588,15.948 65.511,14.955 66.7,14.242C67.897,13.53 69.3,13.174 70.91,13.174C71.993,13.174 73.001,13.348 73.934,13.697C74.875,14.039 75.694,14.556 76.392,15.247C77.097,15.938 77.645,16.807 78.037,17.854C78.429,18.894 78.625,20.112 78.625,21.508L78.625,22.758L64.766,22.758L64.766,19.938L74.34,19.938C74.34,19.282 74.198,18.702 73.913,18.196C73.628,17.69 73.233,17.295 72.727,17.01C72.228,16.718 71.648,16.572 70.985,16.572C70.294,16.572 69.682,16.732 69.147,17.052C68.62,17.366 68.207,17.79 67.908,18.324C67.609,18.851 67.456,19.439 67.448,20.087L67.448,22.769C67.448,23.581 67.598,24.283 67.897,24.874C68.203,25.465 68.634,25.921 69.19,26.242C69.746,26.562 70.405,26.723 71.167,26.723C71.673,26.723 72.135,26.651 72.556,26.509C72.976,26.366 73.336,26.153 73.635,25.868C73.934,25.583 74.162,25.234 74.319,24.821L78.529,25.098C78.315,26.11 77.877,26.993 77.215,27.748C76.559,28.496 75.712,29.08 74.671,29.501C73.639,29.914 72.445,30.12 71.092,30.12Z" style="fill-rule:nonzero;"/>
        </g>
        <g transform="matrix(10.6209,0,0,10.6209,391.27,794.34)">
            <path d="M52.065,29.801L52.065,13.388L56.477,13.388L56.477,16.252L56.648,16.252C56.948,15.233 57.45,14.464 58.155,13.944C58.86,13.417 59.672,13.153 60.591,13.153C60.819,13.153 61.065,13.168 61.328,13.196C61.592,13.225 61.824,13.264 62.023,13.314L62.023,17.353C61.809,17.288 61.514,17.231 61.136,17.182C60.759,17.132 60.413,17.107 60.1,17.107C59.43,17.107 58.832,17.253 58.304,17.545C57.785,17.83 57.371,18.229 57.065,18.742C56.766,19.255 56.616,19.846 56.616,20.515L56.616,29.801L52.065,29.801Z" style="fill-rule:nonzero;"/>
        </g>
    </g>
</svg>
